PathFileType	4	(X/Y/Z)	regression/subject04/trials/walk2/markers.trc
DataRate	CameraRate	NumFrames	NumMarkers	Units	OrigDataRate	OrigDataStartFrame	OrigNumFrames
199.9999999999954	199.9999999999954	4	64	m	199.9999999999954	139	223
Frame#	Time	CLAV			C7			RACR			RASH			RPSH			RLEL			RMEL			RUA1			RUA2			RUA3			RFAsuperior			RFAradius			RFAulna			RASI			RPSI			RCAL			RTOE			RMT5			RTH1			RTH2			RTH3			RTB1			RTB2			RTB3			RLFC			RMFC			RLMAL			RMMAL			RHJC			RKJC			REJC			RAJC			RSJC			LACR			LASH			LPSH			LLEL			LMEL			LUA1			LUA2			LUA3			LFAsuperior			LFAradius			LFAulna			LASI			LPSI			LCAL			LTOE			LMT5			LTH1			LTH2			LTH3			LTB1			LTB2			LTB3			LLFC			LMFC			LLMAL			LMMAL			LHJC			LKJC			LEJC			LAJC			LSJC			
		X1	Y1	Z1	X2	Y2	Z2	X3	Y3	Z3	X4	Y4	Z4	X5	Y5	Z5	X6	Y6	Z6	X7	Y7	Z7	X8	Y8	Z8	X9	Y9	Z9	X10	Y10	Z10	X11	Y11	Z11	X12	Y12	Z12	X13	Y13	Z13	X14	Y14	Z14	X15	Y15	Z15	X16	Y16	Z16	X17	Y17	Z17	X18	Y18	Z18	X19	Y19	Z19	X20	Y20	Z20	X21	Y21	Z21	X22	Y22	Z22	X23	Y23	Z23	X24	Y24	Z24	X25	Y25	Z25	X26	Y26	Z26	X27	Y27	Z27	X28	Y28	Z28	X29	Y29	Z29	X30	Y30	Z30	X31	Y31	Z31	X32	Y32	Z32	X33	Y33	Z33	X34	Y34	Z34	X35	Y35	Z35	X36	Y36	Z36	X37	Y37	Z37	X38	Y38	Z38	X39	Y39	Z39	X40	Y40	Z40	X41	Y41	Z41	X42	Y42	Z42	X43	Y43	Z43	X44	Y44	Z44	X45	Y45	Z45	X46	Y46	Z46	X47	Y47	Z47	X48	Y48	Z48	X49	Y49	Z49	X50	Y50	Z50	X51	Y51	Z51	X52	Y52	Z52	X53	Y53	Z53	X54	Y54	Z54	X55	Y55	Z55	X56	Y56	Z56	X57	Y57	Z57	X58	Y58	Z58	X59	Y59	Z59	X60	Y60	Z60	X61	Y61	Z61	X62	Y62	Z62	X63	Y63	Z63	X64	Y64	Z64	

140	2.105	2.128632246499191	1.429801657745009	-0.4983386470311093	2.01672847958958	1.512862045264729	-0.4967023583632271	2.101213690733072	1.488684267816089	-0.3492882155711692	2.143515444355929	1.424416433741403	-0.3029373881255268	2.044141366603784	1.446666977283426	-0.3000665027211402	2.056451291655646	1.145954044442356	-0.2160749152983344	2.02691058948401	1.132161284419445	-0.3031647475352449	2.088149574071142	1.385781540983325	-0.2725557903784597	2.053299508357372	1.230609034163846	-0.2480521933791022	2.107434632362778	1.293898213725092	-0.2634075509091076	2.105527031255387	1.068629962016104	-0.2806606349663043	2.226125091942728	0.9391395086902797	-0.3026935209282932	2.182523464923666	0.8997444276875586	-0.2781580728158237	2.097881259149525	0.9671114997978886	-0.3504679290220315	1.938277045271309	1.014617524638276	-0.4463893441326883	1.575783069626161	0.2786598157203038	-0.3550374185427718	1.716220919022507	0.06108361677661226	-0.4001105878003145	1.648985206260169	0.09169300279398183	-0.3021032710620813	2.031646166796655	0.7352025533482006	-0.3227538814365725	2.101236803765667	0.637456266491312	-0.3805715830226969	2.011543597701908	0.5764603176292532	-0.3090384460171012	1.851414479909688	0.3561638673817373	-0.3128680504870953	1.804231488097769	0.2760607027396872	-0.3727469663526995	1.729411433232471	0.2597043243246459	-0.304997514036831	1.992494860857887	0.4657194067473209	-0.3082135659331229	1.995081219446338	0.4516352466316719	-0.4262211286625035	1.631062884807641	0.2196774147601514	-0.3053287704358537	1.634167395138669	0.2125103861709704	-0.4062843413611947	2.022576821761399	0.8863420102356511	-0.4176280127561643	1.997525876424918	0.4505545183448663	-0.3693909836877787	2.045701102582934	1.133418206352152	-0.2665572061571678	1.615179198257374	0.2199913240036673	-0.3632929880342003	2.096963657632937	1.434839700863664	-0.3015925218578419	2.090738999493944	1.480459037452745	-0.6481148193684423	2.12981777119707	1.413660363266262	-0.6937106392450378	2.022493767224753	1.437690950291647	-0.6906100830083003	1.971055675764444	1.156624182571538	-0.783380748159667	1.952328467462477	1.142341935708501	-0.6934205396502825	2.060219908213759	1.380171158101795	-0.7218292425889914	1.990423453224207	1.237472557513953	-0.7475007146925787	2.058270311816263	1.28727287271204	-0.7380852332470359	1.986248925698688	1.055971636570655	-0.7375946690420051	2.028386188591733	0.8835057040664968	-0.7542401191483499	1.968334920549055	0.8747402233486028	-0.7735293403418219	2.120173986266126	0.9915966722697483	-0.6135547674209902	1.946086024598179	1.02319450154413	-0.5385467401965905	2.09303175251034	0.04885764947815249	-0.568604891046891	2.352978862093629	0.05521826788658134	-0.530123399008115	2.289287549128279	0.01291216030350317	-0.6261266261995341	2.111080346645641	0.7586081158586405	-0.6532618600147998	2.213670222782317	0.7065764387374495	-0.5861194601844255	2.160469202625109	0.6058641455007818	-0.6486418731791589	2.189658856437029	0.3210212162151105	-0.6240602561045635	2.227306475391283	0.2388052295137358	-0.5604094541847937	2.197918418031461	0.165518241225979	-0.6253780577278004	2.190103148225115	0.4981383777773652	-0.6366388576396297	2.194757765354463	0.4995353965721026	-0.5178650366347199	2.173737259497627	0.06222243967571711	-0.620911610436289	2.180623269798322	0.06483202127809168	-0.51992247968424	2.035983971601266	0.9010677265855692	-0.5758520220872108	2.196656588052431	0.4970220155846327	-0.5747882809867437	1.965410351425462	1.14263508296478	-0.7324532418651445	2.163866412237248	0.05187006794095311	-0.5625366557634474	2.083265984474078	1.424083630388522	-0.6923657729773529	
141	2.11	2.134851794461348	1.430580899386417	-0.4987918663697001	2.022908681440194	1.513593823049248	-0.4974680778015041	2.107018096776822	1.489486831971548	-0.3498276207704316	2.149225824707316	1.42524798944195	-0.3033510581337778	2.049835084177985	1.447456723126027	-0.3007455168865279	2.061969985477695	1.14649478567813	-0.2176228203045649	2.032968434488495	1.132900061038191	-0.304924742935634	2.09373381280123	1.386506760074946	-0.2732771990624015	2.058913899095266	1.23123075285887	-0.2493942467460602	2.113068169415534	1.294621179407276	-0.2642565390854361	2.110672563507543	1.068535623656375	-0.2817128861565049	2.229833050871928	0.9375266294211523	-0.3025584969282475	2.185567328285696	0.8987241039711309	-0.2782691510618145	2.104275737538462	0.9679172771527264	-0.3511461727875026	1.944655547416678	1.015247830680658	-0.4471277281451598	1.587484471004296	0.2855952203765651	-0.3546359894881387	1.722261687240933	0.06469438037184547	-0.4008063625155113	1.655937032843048	0.09659118102608028	-0.3025890318438148	2.040982476273646	0.7362433976653113	-0.3233130620652434	2.111863338593848	0.6395222239999776	-0.3812871759981811	2.023457609825356	0.5772240938672779	-0.3092751160059742	1.863666232035602	0.3585034201147088	-0.3128300879299915	1.815219829961731	0.2792098077041104	-0.372777610182456	1.740235017311842	0.2638773122277238	-0.3049708813988752	2.006170063881932	0.4661967268804604	-0.3082033507824388	2.008470038586146	0.4519722213076193	-0.4262000085139533	1.641295398861193	0.2253341982690645	-0.3052545441688632	1.644183462416775	0.2182747090495645	-0.4062241152529966	2.029109626158813	0.8870728234102556	-0.4183709865158131	2.011119744130649	0.4507723164294707	-0.3693711323329251	2.051537369023883	1.134080912105478	-0.2682017857835915	1.62535604380459	0.2259749659606425	-0.3632007859484103	2.102666232306351	1.435651670736256	-0.3021304923365036	2.097329057793301	1.481186852136794	-0.6486786632086606	2.136555542959634	1.41439416965804	-0.6941562674760773	2.029213543187958	1.438379602036843	-0.6913422829290473	1.979586627460114	1.156848510309359	-0.7847091593701316	1.960142830083113	1.142559603132596	-0.6949021668998907	2.067370317887105	1.380776964799126	-0.7225628045304419	1.998338863653497	1.237795632063119	-0.7487249343028999	2.065912916945653	1.287860315899913	-0.7387653329312888	1.99496361079572	1.056331232791362	-0.7386901500453995	2.038244029129323	0.8840949676954105	-0.7547709517217616	1.978398739035999	0.8749505880728341	-0.7745189661780079	2.126662964402242	0.9925245285070592	-0.6142135959819494	1.952497629314098	1.023867570926524	-0.539278323204866	2.093362951468925	0.04932021897310233	-0.5687593681120072	2.353313116295965	0.05479334113263041	-0.5301622281014311	2.289519865867367	0.01269282505078157	-0.6261881488866256	2.116964711149586	0.7589653015188208	-0.6538500021678429	2.219187629901214	0.7063919381229382	-0.5865700177155062	2.165498562918433	0.6059511194814802	-0.6491119454007988	2.192529858132132	0.3209543320736657	-0.6243290900438387	2.22932196058913	0.238448387890016	-0.5605533372972553	2.199391300920702	0.1653823969036184	-0.6255231501874803	2.194519670905648	0.4980672747475485	-0.6370315694925279	2.199047345317304	0.4994873459369966	-0.5182531150469554	2.174273125666517	0.06231170138196501	-0.6210276864805824	2.181001990906058	0.06493155832598324	-0.5200282295204771	2.042573609434249	0.901871959663492	-0.5765833192783221	2.201023986081373	0.4969202670167726	-0.5751679601904345	1.97355782847111	1.142874531632949	-0.7338214693579084	2.164205234363826	0.05209044911127514	-0.5626632784396807	2.08999595055867	1.424797850952346	-0.692935701678803	
142	2.115	2.141037984774298	1.431403057182879	-0.4992303834755084	2.029064048273972	1.514378686270193	-0.4982100961254863	2.112801579898006	1.490327572454029	-0.3503492999652147	2.154911156018661	1.426111598727699	-0.3037522573719977	2.055506613020258	1.448287491599224	-0.3014064938205463	2.067463348293731	1.147102440041128	-0.2190637289703572	2.038964425839573	1.133687746025514	-0.3065588122397359	2.099300072816142	1.38727753949723	-0.2739676726169974	2.064501085649562	1.231910965592499	-0.2506499020527208	2.118674783218772	1.29538965769946	-0.2650577140156792	2.115759382432651	1.068510049178626	-0.2826656547024618	2.233448949737037	0.9360023907349104	-0.3023634720779782	2.188532168299697	0.8977989402099995	-0.2783209760906458	2.110538829881143	0.9688082548482629	-0.3517545495361871	1.950947562137084	1.015951840554874	-0.4478761129193176	1.599496651687214	0.2918286949736205	-0.3543165553267389	1.729170039401442	0.06811599375975541	-0.4015523713045143	1.663686740120423	0.101101733093843	-0.3031303807073697	2.050203978269463	0.7373722817491871	-0.3238664780967203	2.122369540087277	0.641720245349416	-0.3820291773537211	2.035272785457111	0.5781115874792315	-0.3095691148483194	1.876058131049579	0.360749108246705	-0.3128850155917096	1.826520729669136	0.2821789628078982	-0.3728934681416028	1.751417146209648	0.2677222825120883	-0.3050258310796656	2.019759844650408	0.4668245328501011	-0.30829464046	2.021786059043011	0.4524932167851122	-0.4262833920989618	1.651985094833135	0.2304675564598882	-0.3052554899383443	1.65467108894626	0.2235187896755955	-0.4062383184779378	2.035528577638315	0.8878765169813393	-0.4190483935783362	2.02463565473682	0.45117817980275	-0.369456029644509	2.057326332007412	1.13479911780817	-0.2697297398151198	1.635992200179212	0.2313999529534925	-0.3631830180799456	2.108345097851059	1.436499895743365	-0.3026533844363203	2.103883879077254	1.481968331050544	-0.6492227019322138	2.143249547253061	1.415180283046219	-0.6945867060980735	2.035892640814787	1.439130247347466	-0.6920532814625059	1.988119864209525	1.157126152110308	-0.7860191118954514	1.967951456099773	1.142825123667062	-0.6963740009240333	2.074487831745575	1.381438907163138	-0.7232778929136773	2.006243343480234	1.238171174195429	-0.7499332250349906	2.073532922781882	1.288505844394695	-0.7394235914148782	2.003696812689331	1.056750952475085	-0.7397595068703473	2.048161004343599	0.8847624506319354	-0.7552517211139831	1.988532218626822	0.8752230538439902	-0.7754623698632157	2.133129900390212	0.9934503329123936	-0.6148012857143184	1.958861048973148	1.024583780342564	-0.5400194614684513	2.093674424625426	0.04974319444770446	-0.5689037953703564	2.353624110793513	0.05441186764667942	-0.530197896227604	2.289740683367963	0.01250165146417106	-0.6262471085989099	2.122740408289093	0.7593163787338274	-0.6543710697149904	2.224563956354066	0.7061556731743854	-0.5869471540125737	2.170348609112237	0.6060153030941452	-0.6495168678131064	2.195239393425292	0.3208698106665021	-0.6245570704641866	2.231220091950047	0.23809212941268	-0.5606706001661148	2.200778070441268	0.1652444101822423	-0.62564792808428	2.198706564048093	0.4979637236943195	-0.6373609340141376	2.203098442830271	0.4994017712640813	-0.5185775972274075	2.174775726766756	0.06239400747355789	-0.6211342839410893	2.181356285512035	0.0650174026196394	-0.52012514757926	2.049115155259521	0.9026965984923832	-0.5772482848873599	2.205148433699175	0.4967866784361165	-0.5754852484737445	1.98170311663749	1.143164791986861	-0.7351754174370536	2.164522747487417	0.05229403536765054	-0.5627809846463099	2.09668348908546	1.425568580061885	-0.693487833162396	
143	2.12	2.147189201346221	1.432266416680896	-0.4996523748505639	2.035192337122464	1.515214191256211	-0.498926040809238	2.118561740628554	1.491203213964265	-0.3508508543398026	2.160569389191117	1.427003819901717	-0.3041391071517365	2.061153701118344	1.449155174121706	-0.3020475834851949	2.072921129588256	1.147773723801439	-0.2203948379338612	2.04488920675885	1.134520886551819	-0.3080652765104848	2.104844584767951	1.388090329951183	-0.2746250903127382	2.070053198869273	1.2326464291595	-0.2518169033458363	2.12424864544371	1.296199649465944	-0.2658083530480148	2.120781967970805	1.06855293213474	-0.2835164572149047	2.236976431156867	0.934573763875425	-0.3021053518924871	2.191423982119177	0.8969731141623634	-0.2783098055061496	2.116686687719973	0.9697874012266483	-0.3523024574352523	1.957158866071036	1.016725303902686	-0.4486297784452821	1.611717414791196	0.2974074144621126	-0.3540927298301256	1.736997169060563	0.07141766283985998	-0.4023358413455985	1.672259331702229	0.1052767915973193	-0.3037174782928687	2.059324716714624	0.7385877887277497	-0.3244157588007447	2.132767154941342	0.6440495059137985	-0.3828006996217161	2.047002522148097	0.579121663124041	-0.3099229274689632	1.888575513259605	0.3629166980946588	-0.313037727520205	1.838098226224533	0.2849907028886933	-0.373102850777998	1.762915996453372	0.2712711526819441	-0.3051693076438196	2.033276940700052	0.4676019757822358	-0.3084904839046634	2.035038918805994	0.45319847722962	-0.4264746876814359	1.663075290985914	0.2351255400549282	-0.3053378808780586	1.665568401675928	0.2282953658780494	-0.4063337456639794	2.041846329673335	0.8887522075184602	-0.4196609295808541	2.038085502693876	0.4517697118609318	-0.3696494061960541	2.063058202917919	1.135569335620176	-0.2711388137210946	1.647027587039924	0.2363207619460093	-0.3632454209909119	2.113998110113427	1.437380621786071	-0.3031593328901451	2.110401845376736	1.482802917881801	-0.6497447549856739	2.14989875693874	1.416018817332341	-0.6950003618424911	2.042529813820146	1.439942279889929	-0.6927415162826264	1.996649460487385	1.15745835303697	-0.7873050063426358	1.975752292311239	1.14313921621153	-0.6978298661969722	2.081569926839901	1.382157147356156	-0.7239720395639228	2.014132824645741	1.238600003261327	-0.7511205910131855	2.0811266869396	1.289209838082543	-0.740057773116679	2.012443575668549	1.05723205265121	-0.7407977150638412	2.058129908276369	0.8855101065797938	-0.755678913207212	1.998727815709077	0.8755601573158498	-0.7763538354143659	2.139565763315846	0.9943728920646053	-0.615329595639976	1.965173238983402	1.025337421598757	-0.5407662619676118	2.09396794233064	0.05013236291681402	-0.5690409550065938	2.353914502876541	0.05407142279157828	-0.5302330699259321	2.289951040932469	0.01233442193594236	-0.6263044392976348	2.128408247032083	0.7596625248575044	-0.6548302851074939	2.229804860678783	0.7058746370447604	-0.5872605446137651	2.175027765455561	0.6060614874050733	-0.6498638327011469	2.197797784814114	0.3207728359120131	-0.6247504929123864	2.233010283233571	0.2377397204495116	-0.5607675423795628	2.202083647592365	0.1651073279441715	-0.6257570706196472	2.202678044829341	0.4978348303313014	-0.6376353047989866	2.206930388356545	0.4992864148401888	-0.5188470555687693	2.175246160693336	0.06247208517739905	-0.6212341913920392	2.181689844471668	0.06509270529539751	-0.5202161589739744	2.05560611747799	0.9035382567006479	-0.5778490344016363	2.209047710358051	0.4966285682264177	-0.5757486792122447	1.989842440419542	1.143506793654394	-0.7365093966832454	2.16482096159484	0.05248415694843872	-0.5628921218994457	2.10332747786105	1.426395619216695	-0.6940205875808998	
